{
    "asset" : {
        "generator" : "Khronos glTF Blender I/O v1.8.19",
        "version" : "2.0"
    },
    "scene" : 0,
    "scenes" : [
        {
            "name" : "Scene",
            "nodes" : [
                0,
                1,
                2
            ]
        }
    ],
    "nodes" : [
        {
            "mesh" : 0,
            "name" : "Cube",
            "translation" : [
                -0.18080992996692657,
                3.193232536315918,
                -0.2591422498226166
            ]
        },
        {
            "mesh" : 1,
            "name" : "\u67f1\u4f53",
            "scale" : [
                1,
                0.43820247054100037,
                1
            ],
            "translation" : [
                0.026607690379023552,
                0.48427772521972656,
                -1.164768099784851
            ]
        },
        {
            "mesh" : 2,
            "name" : "\u9525\u4f53",
            "rotation" : [
                0.04885009303689003,
                0.0034875019919127226,
                0.9962643384933472,
                -0.0711258128285408
            ],
            "translation" : [
                -0.12791943550109863,
                3.7420449256896973,
                -0.07036897540092468
            ]
        }
    ],
    "materials" : [
        {
            "doubleSided" : true,
            "name" : "Material",
            "pbrMetallicRoughness" : {
                "baseColorFactor" : [
                    0.800000011920929,
                    0.800000011920929,
                    0.800000011920929,
                    1
                ],
                "metallicFactor" : 0,
                "roughnessFactor" : 0.4000000059604645
            }
        }
    ],
    "meshes" : [
        {
            "name" : "Cube",
            "primitives" : [
                {
                    "attributes" : {
                        "POSITION" : 0,
                        "NORMAL" : 1,
                        "TEXCOORD_0" : 2
                    },
                    "indices" : 3,
                    "material" : 0
                }
            ]
        },
        {
            "name" : "\u67f1\u4f53",
            "primitives" : [
                {
                    "attributes" : {
                        "POSITION" : 4,
                        "NORMAL" : 5,
                        "TEXCOORD_0" : 6,
                        "COLOR_0" : 7
                    },
                    "indices" : 8
                }
            ]
        },
        {
            "name" : "\u9525\u4f53",
            "primitives" : [
                {
                    "attributes" : {
                        "POSITION" : 9,
                        "NORMAL" : 10,
                        "TEXCOORD_0" : 11
                    },
                    "indices" : 12
                }
            ]
        }
    ],
    "accessors" : [
        {
            "bufferView" : 0,
            "componentType" : 5126,
            "count" : 24,
            "max" : [
                1,
                1,
                1
            ],
            "min" : [
                -1,
                -1,
                -1
            ],
            "type" : "VEC3"
        },
        {
            "bufferView" : 1,
            "componentType" : 5126,
            "count" : 24,
            "type" : "VEC3"
        },
        {
            "bufferView" : 2,
            "componentType" : 5126,
            "count" : 24,
            "type" : "VEC2"
        },
        {
            "bufferView" : 3,
            "componentType" : 5123,
            "count" : 36,
            "type" : "SCALAR"
        },
        {
            "bufferView" : 4,
            "componentType" : 5126,
            "count" : 8994,
            "max" : [
                3.1860265731811523,
                5.172206401824951,
                4.282421112060547
            ],
            "min" : [
                -3.392179012298584,
                -1.0936893224716187,
                -2.337580680847168
            ],
            "type" : "VEC3"
        },
        {
            "bufferView" : 5,
            "componentType" : 5126,
            "count" : 8994,
            "type" : "VEC3"
        },
        {
            "bufferView" : 6,
            "componentType" : 5126,
            "count" : 8994,
            "type" : "VEC2"
        },
        {
            "bufferView" : 7,
            "componentType" : 5123,
            "count" : 8994,
            "normalized" : true,
            "type" : "VEC4"
        },
        {
            "bufferView" : 8,
            "componentType" : 5123,
            "count" : 14004,
            "type" : "SCALAR"
        },
        {
            "bufferView" : 9,
            "componentType" : 5126,
            "count" : 128,
            "max" : [
                0.95106041431427,
                -1.7881393432617188e-07,
                0.17841073870658875
            ],
            "min" : [
                -0.9892165064811707,
                -1.8658921718597412,
                -1.3758591413497925
            ],
            "type" : "VEC3"
        },
        {
            "bufferView" : 10,
            "componentType" : 5126,
            "count" : 128,
            "type" : "VEC3"
        },
        {
            "bufferView" : 11,
            "componentType" : 5126,
            "count" : 128,
            "type" : "VEC2"
        },
        {
            "bufferView" : 12,
            "componentType" : 5123,
            "count" : 186,
            "type" : "SCALAR"
        }
    ],
    "bufferViews" : [
        {
            "buffer" : 0,
            "byteLength" : 288,
            "byteOffset" : 0
        },
        {
            "buffer" : 0,
            "byteLength" : 288,
            "byteOffset" : 288
        },
        {
            "buffer" : 0,
            "byteLength" : 192,
            "byteOffset" : 576
        },
        {
            "buffer" : 0,
            "byteLength" : 72,
            "byteOffset" : 768
        },
        {
            "buffer" : 0,
            "byteLength" : 107928,
            "byteOffset" : 840
        },
        {
            "buffer" : 0,
            "byteLength" : 107928,
            "byteOffset" : 108768
        },
        {
            "buffer" : 0,
            "byteLength" : 71952,
            "byteOffset" : 216696
        },
        {
            "buffer" : 0,
            "byteLength" : 71952,
            "byteOffset" : 288648
        },
        {
            "buffer" : 0,
            "byteLength" : 28008,
            "byteOffset" : 360600
        },
        {
            "buffer" : 0,
            "byteLength" : 1536,
            "byteOffset" : 388608
        },
        {
            "buffer" : 0,
            "byteLength" : 1536,
            "byteOffset" : 390144
        },
        {
            "buffer" : 0,
            "byteLength" : 1024,
            "byteOffset" : 391680
        },
        {
            "buffer" : 0,
            "byteLength" : 372,
            "byteOffset" : 392704
        }
    ],
    "buffers" : [
        {
            "byteLength" : 393076,
            "uri" : "data:application/octet-stream;base64,"
        }
    ]
}
